<svg xmlns="http://www.w3.org/2000/svg" width="175" height="133.016"><defs><style>.cls-1{fill:#f6f7ff}.cls-4{fill:#fff}.cls-5,.cls-6{stroke:#745fc9}.cls-6{stroke-linecap:round;stroke-width:3px}.cls-3{fill:#745fc9}.cls-12,.cls-5,.cls-6{fill:none}.cls-5{stroke-width:2px}.cls-10{fill:rgba(0,106,194,.08)}.cls-11{stroke:none}</style></defs><g id="Group_184" data-name="Group 184" transform="translate(-8486 -6667)"><g id="Group_182" data-name="Group 182" transform="translate(38)"><path id="Union_4" d="M15.317 30.633a15.317 15.317 0 1 1 0-30.633h42.727a15.317 15.317 0 1 1 0 30.633z" class="cls-1" data-name="Union 4" transform="translate(8455.255 6671.837)"/><path id="Union_5" d="M15.317 30.633a15.317 15.317 0 1 1 0-30.633h42.727a15.317 15.317 0 1 1 0 30.633z" class="cls-1" data-name="Union 5" transform="translate(8549.576 6702.471)"/><path id="Union_6" d="M15.317 30.633a15.317 15.317 0 1 1 0-30.633h51.595v.088c8.611.823 15.317 7.327 15.317 15.228s-6.706 14.4-15.317 15.229v.088z" class="cls-1" data-name="Union 6" transform="translate(8448 6738.749)"/><path id="Union_7" d="M15.317 30.633a15.317 15.317 0 1 1 0-30.633h99.158a15.317 15.317 0 1 1 0 30.633z" class="cls-1" data-name="Union 7" transform="translate(8476.216 6769.382)"/><path id="Subtraction_1" d="M36.278 17.736H13.3c0-.115.005-.243.005-.4a12.814 12.814 0 0 0-3.78-9.124A12.814 12.814 0 0 0 .4 4.434c-.13 0-.262 0-.4.006V0h36.278v17.735z" class="cls-1" data-name="Subtraction 1" transform="translate(8462.913 6764.948)"/><ellipse id="Ellipse_20" cx="9.5" cy="9" class="cls-1" data-name="Ellipse 20" rx="9.5" ry="9" transform="translate(8593 6747)"/><ellipse id="Ellipse_23" cx="9" cy="9.5" class="cls-1" data-name="Ellipse 23" rx="9" ry="9.5" transform="translate(8559 6673)"/><ellipse id="Ellipse_21" cx="4.5" cy="5" class="cls-1" data-name="Ellipse 21" rx="4.5" ry="5" transform="translate(8614 6737)"/><ellipse id="Ellipse_22" cx="5" cy="5.5" class="cls-1" data-name="Ellipse 22" rx="5" ry="5.5" transform="translate(8541 6667)"/></g><g id="Group_183" data-name="Group 183" transform="translate(28.928 -13.072)"><rect id="Rectangle_86" width="85" height="85" data-name="Rectangle 86" rx="13" transform="translate(8502.072 6704.072)" stroke-linecap="round" stroke-width="3" stroke="#745fc9" fill="#fff"/><g id="Group_181" data-name="Group 181" transform="translate(8517.163 6742.677)"><circle id="Ellipse_3" cx="6" cy="6" r="6" class="cls-3" data-name="Ellipse 3" transform="translate(-.091 10.395)"/><circle id="Ellipse_4" cx="6" cy="6" r="6" class="cls-3" data-name="Ellipse 4" transform="translate(42.909 10.395)"/><circle id="Ellipse_25" cx="3.5" cy="3.5" r="3.5" class="cls-4" data-name="Ellipse 25" transform="translate(47.909 10.395)"/><circle id="Ellipse_26" cx="3.5" cy="3.5" r="3.5" class="cls-4" data-name="Ellipse 26" transform="translate(4.909 10.395)"/><g id="Ellipse_24" class="cls-5" data-name="Ellipse 24" transform="translate(42.909 10.395)"><circle cx="6" cy="6" r="6" class="cls-11"/><circle cx="6" cy="6" r="5" class="cls-12"/></g><g id="Ellipse_27" class="cls-5" data-name="Ellipse 27" transform="translate(-.091 10.395)"><circle cx="6" cy="6" r="6" class="cls-11"/><circle cx="6" cy="6" r="5" class="cls-12"/></g><path id="Path_36" d="M8578.917 6723.646c0 5.879 5.837 5.838 5.837 5.838" class="cls-6" data-name="Path 36" transform="translate(-8535.699 -6723.646)"/><path id="Path_37" d="M8584.754 6723.646c0 5.879-5.837 5.838-5.837 5.838" class="cls-6" data-name="Path 37" transform="translate(-8573.646 -6723.646)"/><g id="Group_180" data-name="Group 180" transform="translate(21.325 20.433)"><path id="Path_39" d="M8578.917 6723.646c0 5.045 3.941 5.107 5.837 5.107" class="cls-6" data-name="Path 39" transform="translate(-8578.917 -6723.646)"/><path id="Path_38" d="M8584.754 6723.646c0 5.072-4.063 5.107-5.837 5.107" class="cls-6" data-name="Path 38" transform="translate(-8573.079 -6723.646)"/></g></g><ellipse id="Ellipse_5" cx="4" cy="3.5" data-name="Ellipse 5" rx="4" ry="3.5" transform="translate(8571.072 6712.072)" fill="#fb6094"/><circle id="Ellipse_6" cx="3.5" cy="3.5" r="3.5" data-name="Ellipse 6" transform="translate(8561.072 6712.072)" fill="#2cb3be"/><circle id="Ellipse_7" cx="3.5" cy="3.5" r="3.5" data-name="Ellipse 7" transform="translate(8551.072 6712.072)" fill="#ffcd3e"/><path id="Union_2" d="M3.648 7.3a3.649 3.649 0 0 1 0-7.3H27a3.649 3.649 0 0 1 0 7.3z" class="cls-10" data-name="Union 2" transform="translate(8510.027 6712.027)"/><path id="Union_3" d="M3.648 7.3a3.649 3.649 0 0 1 0-7.3h61.3a3.649 3.649 0 0 1 0 7.3z" class="cls-10" data-name="Union 3" transform="translate(8510.027 6722.244)"/></g></g></svg>