<svg width="12" height="19" viewBox="0 0 12 19" fill="none" xmlns="http://www.w3.org/2000/svg">
<path d="M9 5.08709C9.91239 5.61356 10.67 6.37106 11.1967 7.28335C11.7233 8.19565 12.0004 9.23056 12 10.2839V17.1411H8.42571C8.24863 17.643 7.92022 18.0776 7.48577 18.385C7.05132 18.6924 6.53221 18.8575 6 18.8575C5.46779 18.8575 4.94868 18.6924 4.51423 18.385C4.07978 18.0776 3.75137 17.643 3.57429 17.1411H3.99713e-07V10.2839C-0.000384133 9.23056 0.276685 8.19565 0.803327 7.28335C1.32997 6.37106 2.08761 5.61356 3 5.08709C2.85916 4.83413 2.75115 4.56424 2.67857 4.28395H3.99713e-07V2.56967H2.67943C2.87009 1.83403 3.29963 1.18253 3.90063 0.717443C4.50163 0.252352 5.24006 0 6 0C6.75994 0 7.49837 0.252352 8.09937 0.717443C8.70037 1.18253 9.12991 1.83403 9.32057 2.56967H12V4.28395H9.32057C9.24814 4.56402 9.14072 4.83386 9.00086 5.08709H9ZM6 11.1411C5.77267 11.1411 5.55465 11.2314 5.39391 11.3921C5.23316 11.5529 5.14286 11.7709 5.14286 11.9982V16.2839C5.14286 16.5113 5.23316 16.7293 5.39391 16.89C5.55465 17.0508 5.77267 17.1411 6 17.1411C6.22733 17.1411 6.44535 17.0508 6.60609 16.89C6.76684 16.7293 6.85714 16.5113 6.85714 16.2839V11.9982C6.85714 11.7709 6.76684 11.5529 6.60609 11.3921C6.44535 11.2314 6.22733 11.1411 6 11.1411ZM6 5.14109C6.45466 5.14109 6.89069 4.96048 7.21218 4.63899C7.53367 4.3175 7.71429 3.88146 7.71429 3.42681C7.71429 2.97215 7.53367 2.53612 7.21218 2.21463C6.89069 1.89313 6.45466 1.71252 6 1.71252C5.54534 1.71252 5.10931 1.89313 4.78782 2.21463C4.46633 2.53612 4.28571 2.97215 4.28571 3.42681C4.28571 3.88146 4.46633 4.3175 4.78782 4.63899C5.10931 4.96048 5.54534 5.14109 6 5.14109Z" fill="white"/>
</svg>
